<?xml version="1.0" encoding="utf-8"?>
<!-- Generator: Adobe Illustrator 16.0.0, SVG Export Plug-In . SVG Version: 6.00 Build 0)  -->
<!DOCTYPE svg PUBLIC "-//W3C//DTD SVG 1.1//EN" "http://www.w3.org/Graphics/SVG/1.1/DTD/svg11.dtd">
<svg version="1.1" xmlns="http://www.w3.org/2000/svg" xmlns:xlink="http://www.w3.org/1999/xlink" x="0px" y="0px" width="224px"
	 height="224px" viewBox="0 0 224 224" enable-background="new 0 0 224 224" xml:space="preserve">
<g id="Layer_2">
	<circle fill="#8E7D35" cx="122" cy="122" r="97"/>
</g>
<g id="Layer_1">
	<circle fill="#EDBA08" cx="50" cy="50" r="48"/>
</g>
<g id="Layer_3">
	<g>
		<rect x="10.888" y="34.646" fill="none" width="86.112" height="60.354"/>
		<path fill="#FFFFFF" d="M28.668,60.486l-3.337-10.675c-0.21-0.653-0.604-2.136-1.179-4.449H24.02
			c-0.443,1.937-0.83,3.431-1.162,4.482l-3.437,10.642h-3.188L11.27,42.291h2.889c1.173,4.571,2.067,8.052,2.681,10.442
			s0.965,4.001,1.054,4.831h0.133c0.122-0.631,0.318-1.447,0.589-2.449c0.271-1.001,0.506-1.795,0.706-2.382l3.337-10.442h2.988
			L28.9,52.733c0.62,1.904,1.04,3.503,1.262,4.798h0.133c0.044-0.398,0.163-1.013,0.357-1.843c0.193-0.83,1.347-5.296,3.461-13.397
			h2.855l-5.03,18.195H28.668z"/>
		<path fill="#FFFFFF" d="M52.707,60.486V48.715c0-1.483-0.338-2.59-1.013-3.32c-0.675-0.73-1.732-1.096-3.171-1.096
			c-1.915,0-3.312,0.521-4.192,1.561c-0.88,1.041-1.32,2.745-1.32,5.113v9.513h-2.756V34.654h2.756v7.819
			c0,0.941-0.044,1.721-0.133,2.341h0.166c0.542-0.874,1.314-1.563,2.316-2.067c1.001-0.503,2.144-0.755,3.428-0.755
			c2.225,0,3.893,0.529,5.005,1.585c1.112,1.057,1.668,2.737,1.668,5.039v11.87H52.707z"/>
		<path fill="#FFFFFF" d="M58.235,42.291h2.955l3.984,10.376c0.874,2.369,1.417,4.079,1.627,5.13h0.133
			c0.144-0.564,0.445-1.53,0.905-2.897c0.459-1.367,1.961-5.57,4.507-12.609h2.955l-7.819,20.719c-0.775,2.047-1.68,3.5-2.714,4.358
			c-1.035,0.857-2.305,1.287-3.81,1.287c-0.841,0-1.671-0.094-2.49-0.282v-2.208c0.608,0.133,1.289,0.199,2.042,0.199
			c1.893,0,3.243-1.063,4.051-3.188l1.013-2.59L58.235,42.291z"/>
		<path fill="#FFFFFF" d="M80.133,53.795v-0.896c0-1.295,0.199-2.36,0.598-3.196c0.398-0.835,1.14-1.718,2.225-2.648
			c1.505-1.272,2.454-2.23,2.847-2.872c0.393-0.642,0.589-1.417,0.589-2.324c0-1.129-0.363-2-1.087-2.615
			c-0.725-0.614-1.768-0.921-3.129-0.921c-0.875,0-1.727,0.103-2.557,0.307c-0.83,0.205-1.782,0.579-2.855,1.121l-0.979-2.241
			c2.092-1.096,4.277-1.644,6.558-1.644c2.114,0,3.757,0.521,4.931,1.561c1.173,1.041,1.76,2.507,1.76,4.399
			c0,0.808-0.108,1.519-0.324,2.133s-0.534,1.195-0.955,1.743c-0.421,0.548-1.328,1.431-2.723,2.648
			c-1.118,0.952-1.857,1.743-2.216,2.374c-0.36,0.631-0.54,1.472-0.54,2.523v0.548H80.133z M79.319,58.726
			c0-1.505,0.664-2.258,1.992-2.258c0.642,0,1.137,0.194,1.486,0.581c0.349,0.388,0.523,0.946,0.523,1.677
			c0,0.708-0.177,1.259-0.531,1.652c-0.354,0.393-0.847,0.589-1.478,0.589c-0.576,0-1.052-0.174-1.428-0.523
			C79.507,60.096,79.319,59.523,79.319,58.726z"/>
	</g>
</g>
<g id="Layer_4">
	<g>
		<rect x="18.479" y="81.187" fill="none" width="165.042" height="99.354"/>
		<path fill="#FFFFFF" d="M96.604,108.547V82.848h2.988v22.992h11.338v2.707H96.604z"/>
		<path fill="#FFFFFF" d="M113.344,84.061c0-0.668,0.164-1.157,0.492-1.468s0.738-0.466,1.23-0.466c0.469,0,0.873,0.158,1.213,0.475
			s0.51,0.803,0.51,1.459s-0.17,1.146-0.51,1.468s-0.744,0.483-1.213,0.483c-0.492,0-0.902-0.161-1.23-0.483
			S113.344,84.717,113.344,84.061z M116.508,108.547h-2.918V89.281h2.918V108.547z"/>
		<path fill="#FFFFFF" d="M125.654,108.547l-7.313-19.266h3.129l4.148,11.426c0.938,2.672,1.488,4.406,1.652,5.203h0.141
			c0.129-0.621,0.537-1.907,1.223-3.858s2.223-6.208,4.613-12.771h3.129l-7.313,19.266H125.654z"/>
		<path fill="#FFFFFF" d="M137.965,84.061c0-0.668,0.164-1.157,0.492-1.468s0.738-0.466,1.23-0.466c0.469,0,0.873,0.158,1.213,0.475
			s0.51,0.803,0.51,1.459s-0.17,1.146-0.51,1.468s-0.744,0.483-1.213,0.483c-0.492,0-0.902-0.161-1.23-0.483
			S137.965,84.717,137.965,84.061z M141.129,108.547h-2.918V89.281h2.918V108.547z"/>
		<path fill="#FFFFFF" d="M159.24,108.547V96.084c0-1.57-0.357-2.742-1.072-3.516s-1.834-1.16-3.357-1.16
			c-2.016,0-3.492,0.545-4.43,1.635s-1.406,2.889-1.406,5.396v10.107h-2.918V89.281h2.373l0.475,2.637h0.141
			c0.598-0.949,1.436-1.685,2.514-2.206s2.279-0.782,3.604-0.782c2.32,0,4.066,0.56,5.238,1.679s1.758,2.909,1.758,5.37v12.568
			H159.24z"/>
		<path fill="#FFFFFF" d="M182.66,89.281v1.846l-3.568,0.422c0.328,0.41,0.621,0.946,0.879,1.608s0.387,1.409,0.387,2.241
			c0,1.887-0.645,3.393-1.934,4.518s-3.059,1.688-5.309,1.688c-0.574,0-1.113-0.047-1.617-0.141
			c-1.242,0.656-1.863,1.482-1.863,2.479c0,0.527,0.217,0.917,0.65,1.169s1.178,0.378,2.232,0.378h3.41
			c2.086,0,3.688,0.439,4.807,1.318s1.68,2.156,1.68,3.832c0,2.133-0.855,3.759-2.566,4.878s-4.207,1.679-7.488,1.679
			c-2.52,0-4.463-0.469-5.828-1.406s-2.047-2.262-2.047-3.973c0-1.172,0.375-2.186,1.125-3.041s1.805-1.436,3.164-1.74
			c-0.492-0.223-0.906-0.568-1.24-1.037s-0.5-1.014-0.5-1.635c0-0.703,0.188-1.318,0.563-1.846s0.967-1.037,1.775-1.529
			c-0.996-0.41-1.809-1.107-2.436-2.092s-0.939-2.109-0.939-3.375c0-2.109,0.633-3.735,1.898-4.878s3.059-1.714,5.379-1.714
			c1.008,0,1.916,0.117,2.725,0.352H182.66z M167.297,111.781c0,1.043,0.439,1.834,1.318,2.373s2.139,0.809,3.779,0.809
			c2.449,0,4.262-0.366,5.439-1.099s1.768-1.726,1.768-2.979c0-1.043-0.322-1.767-0.967-2.171s-1.857-0.606-3.639-0.606h-3.498
			c-1.324,0-2.355,0.316-3.094,0.949S167.297,110.598,167.297,111.781z M168.879,95.451c0,1.348,0.381,2.367,1.143,3.059
			s1.822,1.037,3.182,1.037c2.848,0,4.271-1.383,4.271-4.148c0-2.895-1.441-4.342-4.324-4.342c-1.371,0-2.426,0.369-3.164,1.107
			S168.879,93.998,168.879,95.451z"/>
		<path fill="#FFFFFF" d="M126.686,133.709c0,2.262-0.82,4.025-2.461,5.291s-3.867,1.898-6.68,1.898
			c-3.047,0-5.39-0.393-7.031-1.178v-2.883c1.055,0.445,2.203,0.797,3.445,1.055c1.242,0.258,2.473,0.387,3.691,0.387
			c1.992,0,3.492-0.378,4.5-1.134s1.512-1.808,1.512-3.155c0-0.891-0.178-1.62-0.535-2.188s-0.955-1.093-1.793-1.573
			s-2.113-1.025-3.824-1.635c-2.391-0.855-4.098-1.869-5.124-3.041c-1.025-1.172-1.538-2.701-1.538-4.588
			c0-1.98,0.744-3.557,2.232-4.729c1.488-1.172,3.457-1.758,5.906-1.758c2.555,0,4.904,0.469,7.049,1.406l-0.932,2.602
			c-2.121-0.891-4.184-1.336-6.188-1.336c-1.582,0-2.818,0.34-3.709,1.02s-1.336,1.623-1.336,2.83c0,0.891,0.164,1.62,0.492,2.188
			s0.883,1.09,1.662,1.564s1.971,0.999,3.576,1.573c2.695,0.961,4.551,1.992,5.564,3.094S126.686,131.951,126.686,133.709z"/>
		<path fill="#FFFFFF" d="M136.465,138.49c0.516,0,1.014-0.038,1.494-0.114s0.861-0.155,1.143-0.237v2.232
			c-0.316,0.152-0.781,0.278-1.396,0.378s-1.17,0.149-1.662,0.149c-3.727,0-5.59-1.963-5.59-5.889v-11.461h-2.76v-1.406l2.76-1.213
			l1.23-4.113h1.688v4.465h5.59v2.268h-5.59v11.338c0,1.16,0.275,2.051,0.826,2.672S135.504,138.49,136.465,138.49z"/>
		<path fill="#FFFFFF" d="M138.633,121.281h3.129l4.219,10.986c0.926,2.508,1.5,4.318,1.723,5.432h0.141
			c0.152-0.598,0.473-1.62,0.959-3.067s2.076-5.897,4.771-13.351h3.129l-8.279,21.938c-0.82,2.168-1.777,3.706-2.873,4.614
			s-2.441,1.362-4.035,1.362c-0.891,0-1.77-0.1-2.637-0.299v-2.338c0.645,0.141,1.365,0.211,2.162,0.211
			c2.004,0,3.434-1.125,4.289-3.375l1.072-2.742L138.633,121.281z"/>
		<path fill="#FFFFFF" d="M161.49,140.547h-2.918v-27.352h2.918V140.547z"/>
		<path fill="#FFFFFF" d="M174.557,140.898c-2.848,0-5.096-0.867-6.742-2.602s-2.469-4.143-2.469-7.225
			c0-3.105,0.764-5.572,2.293-7.4s3.584-2.742,6.162-2.742c2.414,0,4.324,0.794,5.73,2.382s2.109,3.683,2.109,6.284v1.846h-13.271
			c0.059,2.262,0.629,3.979,1.713,5.15s2.611,1.758,4.58,1.758c2.074,0,4.125-0.434,6.152-1.301v2.602
			c-1.031,0.445-2.008,0.765-2.928,0.958S175.857,140.898,174.557,140.898z M173.766,123.373c-1.547,0-2.781,0.504-3.701,1.512
			s-1.461,2.402-1.625,4.184h10.072c0-1.84-0.41-3.249-1.23-4.228S175.289,123.373,173.766,123.373z"/>
		<path fill="#FFFFFF" d="M103.729,159.082h8.736v12.498c-1.359,0.434-2.742,0.762-4.148,0.984s-3.035,0.334-4.887,0.334
			c-3.891,0-6.92-1.157-9.088-3.472s-3.252-5.558-3.252-9.729c0-2.672,0.536-5.013,1.608-7.022s2.616-3.545,4.632-4.605
			s4.377-1.591,7.084-1.591c2.742,0,5.297,0.504,7.664,1.512l-1.16,2.637c-2.32-0.984-4.553-1.477-6.697-1.477
			c-3.129,0-5.572,0.932-7.33,2.795s-2.637,4.447-2.637,7.752c0,3.469,0.847,6.1,2.54,7.893s4.181,2.689,7.462,2.689
			c1.781,0,3.521-0.205,5.221-0.615v-7.91h-5.748V159.082z"/>
		<path fill="#FFFFFF" d="M119.678,153.281v12.498c0,1.57,0.357,2.742,1.072,3.516s1.834,1.16,3.357,1.16
			c2.016,0,3.49-0.551,4.422-1.652s1.396-2.9,1.396-5.396v-10.125h2.918v19.266h-2.408l-0.422-2.584h-0.158
			c-0.598,0.949-1.426,1.676-2.486,2.18s-2.271,0.756-3.631,0.756c-2.344,0-4.098-0.557-5.264-1.67s-1.75-2.895-1.75-5.344v-12.604
			H119.678z"/>
		<path fill="#FFFFFF" d="M137.525,148.061c0-0.668,0.164-1.157,0.492-1.468s0.738-0.466,1.23-0.466
			c0.469,0,0.873,0.158,1.213,0.475s0.51,0.803,0.51,1.459s-0.17,1.146-0.51,1.468s-0.744,0.483-1.213,0.483
			c-0.492,0-0.902-0.161-1.23-0.483S137.525,148.717,137.525,148.061z M140.689,172.547h-2.918v-19.266h2.918V172.547z"/>
		<path fill="#FFFFFF" d="M158.73,169.963h-0.158c-1.348,1.957-3.363,2.936-6.047,2.936c-2.52,0-4.48-0.861-5.881-2.584
			s-2.1-4.172-2.1-7.348s0.703-5.643,2.109-7.4s3.363-2.637,5.871-2.637c2.613,0,4.617,0.949,6.012,2.848h0.229l-0.123-1.389
			l-0.07-1.354v-7.84h2.918v27.352h-2.373L158.73,169.963z M152.895,170.455c1.992,0,3.436-0.542,4.332-1.626
			s1.346-2.833,1.346-5.247v-0.615c0-2.73-0.455-4.679-1.363-5.845s-2.357-1.749-4.35-1.749c-1.711,0-3.021,0.665-3.93,1.995
			s-1.361,3.208-1.361,5.634c0,2.461,0.451,4.318,1.354,5.572S151.148,170.455,152.895,170.455z"/>
		<path fill="#FFFFFF" d="M174.557,172.898c-2.848,0-5.096-0.867-6.742-2.602s-2.469-4.143-2.469-7.225
			c0-3.105,0.764-5.572,2.293-7.4s3.584-2.742,6.162-2.742c2.414,0,4.324,0.794,5.73,2.382s2.109,3.683,2.109,6.284v1.846h-13.271
			c0.059,2.262,0.629,3.979,1.713,5.15s2.611,1.758,4.58,1.758c2.074,0,4.125-0.434,6.152-1.301v2.602
			c-1.031,0.445-2.008,0.765-2.928,0.958S175.857,172.898,174.557,172.898z M173.766,155.373c-1.547,0-2.781,0.504-3.701,1.512
			s-1.461,2.402-1.625,4.184h10.072c0-1.84-0.41-3.249-1.23-4.228S175.289,155.373,173.766,155.373z"/>
	</g>
	<g>
	</g>
	<g>
	</g>
	<g>
	</g>
	<g>
	</g>
	<g>
	</g>
	<g>
	</g>
	<g>
	</g>
	<g>
	</g>
	<g>
	</g>
	<g>
	</g>
	<g>
	</g>
	<g>
	</g>
	<g>
	</g>
	<g>
	</g>
	<g>
	</g>
</g>
</svg>
